<svg width="400" height="300" viewBox="0 0 400 300" fill="none" xmlns="http://www.w3.org/2000/svg">
<path d="M220.409 80.234C296.641 63.348 340.089 95.74 353.824 140.176C367.56 184.611 350.442 251.977 289.605 265.454C228.768 278.93 217.861 245.748 135.298 260.143C52.734 274.537 10.854 148.943 72.591 96.573C134.327 44.203 144.177 97.12 220.409 80.234Z" fill="#EDEFF1"/>
<path d="M149.997 152.293L143.669 100.76C140.056 71.3339 160.982 44.5509 190.407 40.9379C219.833 37.3249 246.616 58.2499 250.229 87.6759L256.557 139.209" stroke="#DEE1E5" stroke-width="33.44"/>
<path d="M279.356 105.02C288.455 103.903 296.737 110.376 297.855 119.477L310.466 222.118C311.584 231.219 305.114 239.502 296.015 240.618L136.186 260.23C127.23 261.329 119.063 255.075 117.744 246.198L117.686 245.773L105.076 143.133C103.958 134.032 110.428 125.749 119.526 124.632L279.356 105.02Z" fill="#DEE1E5" stroke="#CFD4D9" stroke-width="2"/>
<path d="M203.939 136.538C223.355 134.154 241.02 147.902 243.395 167.244C245.052 180.744 238.825 193.4 228.311 200.626L236.551 231.624C236.634 231.938 236.65 232.265 236.596 232.585C236.543 232.905 236.422 233.209 236.241 233.479C236.061 233.748 235.825 233.976 235.549 234.146C235.273 234.317 234.965 234.427 234.643 234.469L198.439 239.195C198.118 239.237 197.791 239.21 197.481 239.115C197.171 239.021 196.884 238.861 196.641 238.648C196.397 238.434 196.202 238.17 196.068 237.875C195.934 237.58 195.865 237.259 195.865 236.935L195.866 204.645C183.881 200.194 174.744 189.403 173.083 175.878C170.708 156.535 184.523 138.922 203.939 136.538Z" fill="#B5BDC5"/>
<path d="M215.245 222.26C215.389 222.26 215.532 222.232 215.666 222.177C215.799 222.121 215.921 222.04 216.023 221.938C216.125 221.836 216.206 221.715 216.261 221.581C216.317 221.448 216.345 221.305 216.345 221.16C216.345 221.016 216.317 220.873 216.261 220.739C216.206 220.606 216.125 220.485 216.023 220.382C215.921 220.28 215.799 220.199 215.666 220.144C215.532 220.089 215.389 220.06 215.245 220.06C214.953 220.06 214.673 220.176 214.467 220.382C214.261 220.589 214.145 220.869 214.145 221.16C214.145 221.452 214.261 221.732 214.467 221.938C214.673 222.144 214.953 222.26 215.245 222.26ZM228.225 226.34C228.49 226.34 228.745 226.235 228.932 226.047C229.12 225.86 229.225 225.605 229.225 225.34C229.225 225.075 229.12 224.821 228.932 224.633C228.745 224.446 228.49 224.34 228.225 224.34C227.96 224.34 227.705 224.446 227.518 224.633C227.33 224.821 227.225 225.075 227.225 225.34C227.225 225.605 227.33 225.86 227.518 226.047C227.705 226.235 227.96 226.34 228.225 226.34ZM239.665 162.1C239.93 162.1 240.185 161.995 240.372 161.807C240.56 161.62 240.665 161.365 240.665 161.1C240.665 160.835 240.56 160.581 240.372 160.393C240.185 160.206 239.93 160.1 239.665 160.1C239.4 160.1 239.145 160.206 238.958 160.393C238.77 160.581 238.665 160.835 238.665 161.1C238.665 161.365 238.77 161.62 238.958 161.807C239.145 161.995 239.4 162.1 239.665 162.1ZM206.005 229.2C206.27 229.2 206.525 229.095 206.712 228.907C206.9 228.72 207.005 228.465 207.005 228.2C207.005 227.935 206.9 227.681 206.712 227.493C206.525 227.306 206.27 227.2 206.005 227.2C205.74 227.2 205.485 227.306 205.298 227.493C205.11 227.681 205.005 227.935 205.005 228.2C205.005 228.465 205.11 228.72 205.298 228.907C205.485 229.095 205.74 229.2 206.005 229.2ZM202.705 226.78C202.97 226.78 203.225 226.675 203.412 226.487C203.6 226.3 203.705 226.045 203.705 225.78C203.705 225.515 203.6 225.261 203.412 225.073C203.225 224.886 202.97 224.78 202.705 224.78C202.44 224.78 202.185 224.886 201.998 225.073C201.81 225.261 201.705 225.515 201.705 225.78C201.705 226.045 201.81 226.3 201.998 226.487C202.185 226.675 202.44 226.78 202.705 226.78ZM206.225 155.06C206.49 155.06 206.745 154.955 206.932 154.767C207.12 154.58 207.225 154.325 207.225 154.06C207.225 153.795 207.12 153.541 206.932 153.353C206.745 153.166 206.49 153.06 206.225 153.06C205.96 153.06 205.705 153.166 205.518 153.353C205.33 153.541 205.225 153.795 205.225 154.06C205.225 154.325 205.33 154.58 205.518 154.767C205.705 154.955 205.96 155.06 206.225 155.06ZM195.225 151.1C195.49 151.1 195.745 150.995 195.932 150.807C196.12 150.62 196.225 150.365 196.225 150.1C196.225 149.835 196.12 149.581 195.932 149.393C195.745 149.206 195.49 149.1 195.225 149.1C194.96 149.1 194.705 149.206 194.518 149.393C194.33 149.581 194.225 149.835 194.225 150.1C194.225 150.365 194.33 150.62 194.518 150.807C194.705 150.995 194.96 151.1 195.225 151.1ZM200.725 144.28C200.99 144.28 201.245 144.175 201.432 143.987C201.62 143.8 201.725 143.545 201.725 143.28C201.725 143.015 201.62 142.761 201.432 142.573C201.245 142.386 200.99 142.28 200.725 142.28C200.46 142.28 200.205 142.386 200.018 142.573C199.83 142.761 199.725 143.015 199.725 143.28C199.725 143.545 199.83 143.8 200.018 143.987C200.205 144.175 200.46 144.28 200.725 144.28ZM228.445 158.8C228.71 158.8 228.965 158.695 229.152 158.507C229.34 158.32 229.445 158.065 229.445 157.8C229.445 157.535 229.34 157.281 229.152 157.093C228.965 156.906 228.71 156.8 228.445 156.8C228.18 156.8 227.925 156.906 227.738 157.093C227.55 157.281 227.445 157.535 227.445 157.8C227.445 158.065 227.55 158.32 227.738 158.507C227.925 158.695 228.18 158.8 228.445 158.8ZM219.425 147.14C219.69 147.14 219.945 147.035 220.132 146.847C220.32 146.66 220.425 146.405 220.425 146.14C220.425 145.875 220.32 145.621 220.132 145.433C219.945 145.246 219.69 145.14 219.425 145.14C219.16 145.14 218.905 145.246 218.718 145.433C218.53 145.621 218.425 145.875 218.425 146.14C218.425 146.405 218.53 146.66 218.718 146.847C218.905 147.035 219.16 147.14 219.425 147.14Z" fill="white"/>
<mask id="mask0_142_33690" style="mask-type:alpha" maskUnits="userSpaceOnUse" x="173" y="104" width="195" height="180">
<path d="M211.841 119.561C214.372 111.22 216.802 103.059 219.468 104.088C231.24 108.634 349.762 118.896 351.411 132.315C353.539 149.627 384.392 227.437 354.704 237.613C354.358 237.732 352.738 237.525 350.094 237.054L351.041 281.497C351.049 281.852 350.973 282.204 350.821 282.524C350.669 282.845 350.444 283.125 350.164 283.344C349.884 283.562 349.557 283.711 349.209 283.781C348.861 283.85 348.501 283.837 348.159 283.743L198.456 242.479C197.98 242.348 197.559 242.066 197.257 241.675C196.955 241.284 196.789 240.806 196.782 240.312L196.291 204.432C184.2 200.035 174.948 189.152 173.268 175.489C170.887 156.114 184.633 138.485 203.971 136.113C206.706 135.778 209.098 128.547 211.393 121.033L211.841 119.561Z" fill="white"/>
</mask>
<g mask="url(#mask0_142_33690)">
<path d="M157.591 139.636C144.205 134.497 129.192 141.175 124.058 154.553C118.924 167.93 125.614 182.942 139.001 188.082L271.282 238.875C284.668 244.015 299.681 237.336 304.815 223.959C309.949 210.581 303.259 195.569 289.873 190.429L157.591 139.636Z" fill="white" stroke="#CFD4D9" stroke-width="2" stroke-linecap="round" stroke-linejoin="round"/>
<path fill-rule="evenodd" clip-rule="evenodd" d="M251.931 212.445L248.901 155.274C248.801 153.412 249.437 151.586 250.671 150.189C251.905 148.792 253.639 147.936 255.498 147.806C257.346 147.678 259.168 148.29 260.566 149.505C261.963 150.721 262.82 152.442 262.949 154.29V154.296L264.951 183.178" fill="white"/>
<path d="M251.931 212.445L248.901 155.274C248.801 153.412 249.437 151.586 250.671 150.189C251.905 148.792 253.639 147.936 255.498 147.806C257.346 147.678 259.168 148.29 260.566 149.505C261.963 150.721 262.82 152.442 262.949 154.29V154.296L264.951 183.178" stroke="#CFD4D9" stroke-width="2" stroke-linecap="round" stroke-linejoin="round"/>
<path d="M259.848 214.023L301.096 211.15L298.353 172.073L257.105 174.947L259.848 214.023Z" fill="white"/>
<path fill-rule="evenodd" clip-rule="evenodd" d="M303.331 194.847L310.557 177.77C310.906 176.947 311.419 176.202 312.065 175.584C312.711 174.965 313.477 174.485 314.315 174.172C315.154 173.86 316.047 173.721 316.94 173.766C317.834 173.811 318.709 174.037 319.512 174.431C321.188 175.253 322.48 176.693 323.116 178.448C323.751 180.204 323.681 182.137 322.92 183.841L308.677 215.708" fill="white"/>
<path d="M303.331 194.847L310.557 177.77C310.906 176.947 311.419 176.202 312.065 175.584C312.711 174.965 313.477 174.485 314.315 174.172C315.154 173.86 316.047 173.721 316.94 173.766C317.834 173.811 318.709 174.037 319.512 174.431C321.188 175.253 322.48 176.693 323.116 178.448C323.751 180.204 323.681 182.137 322.92 183.841L308.677 215.708" stroke="#CFD4D9" stroke-width="2" stroke-linecap="round" stroke-linejoin="round"/>
<path fill-rule="evenodd" clip-rule="evenodd" d="M264.961 183.129L262.897 154.07C262.834 153.184 262.945 152.295 263.226 151.453C263.506 150.61 263.95 149.832 264.532 149.161C265.113 148.49 265.821 147.94 266.615 147.543C267.409 147.146 268.273 146.91 269.159 146.847L269.223 146.843C271.035 146.733 272.818 147.343 274.183 148.541C275.547 149.739 276.384 151.427 276.51 153.239L278.55 182.301" fill="white"/>
<path d="M264.961 183.13L262.897 154.071C262.834 153.185 262.945 152.296 263.226 151.454C263.506 150.611 263.95 149.833 264.532 149.162C265.113 148.491 265.821 147.941 266.615 147.544C267.409 147.147 268.273 146.911 269.159 146.848L269.223 146.844C271.035 146.734 272.818 147.345 274.182 148.542C275.547 149.74 276.384 151.428 276.51 153.24L278.55 182.302" stroke="#CFD4D9" stroke-width="2" stroke-linecap="round" stroke-linejoin="round"/>
<path fill-rule="evenodd" clip-rule="evenodd" d="M278.559 182.297L276.527 153.341C276.463 152.444 276.577 151.544 276.862 150.691C277.147 149.838 277.597 149.05 278.186 148.371C278.776 147.692 279.493 147.136 280.298 146.735C281.102 146.333 281.978 146.095 282.875 146.032L282.959 146.026C284.802 145.921 286.613 146.547 287.999 147.767C289.384 148.988 290.233 150.705 290.362 152.547L292.398 181.562" fill="white"/>
<path d="M278.559 182.297L276.527 153.341C276.463 152.444 276.577 151.544 276.862 150.691C277.147 149.838 277.597 149.05 278.186 148.371C278.776 147.692 279.493 147.136 280.298 146.735C281.102 146.333 281.978 146.095 282.875 146.032L282.959 146.026C284.802 145.921 286.613 146.547 287.999 147.767C289.384 148.988 290.233 150.705 290.362 152.547L292.398 181.562" stroke="#CFD4D9" stroke-width="2" stroke-linecap="round" stroke-linejoin="round"/>
<path fill-rule="evenodd" clip-rule="evenodd" d="M292.397 181.556L290.382 152.838C290.315 151.894 290.435 150.947 290.735 150.05C291.034 149.153 291.508 148.324 292.128 147.61C292.748 146.896 293.502 146.311 294.349 145.889C295.195 145.467 296.116 145.215 297.059 145.149L297.085 145.148C299.014 145.021 300.917 145.654 302.387 146.91C303.857 148.166 304.777 149.947 304.953 151.873L310.21 209.287C311.614 224.616 300.602 238.282 285.338 240.153" fill="white"/>
<path d="M292.397 181.556L290.382 152.838C290.315 151.894 290.435 150.947 290.735 150.05C291.034 149.153 291.508 148.324 292.128 147.61C292.748 146.896 293.502 146.311 294.349 145.889C295.195 145.467 296.116 145.215 297.059 145.149L297.085 145.148C299.014 145.021 300.917 145.654 302.387 146.91C303.857 148.166 304.777 149.947 304.953 151.873L310.21 209.287C311.614 224.616 300.602 238.282 285.338 240.153" stroke="#CFD4D9" stroke-width="2" stroke-linecap="round" stroke-linejoin="round"/>
</g>
</svg>
